<svg xmlns="http://www.w3.org/2000/svg" xmlns:xlink="http://www.w3.org/1999/xlink" id="Layer_1" x="0" y="0" version="1.1" viewBox="0 0 188.9 418.2" style="enable-background:new 0 0 188.9 418.2" xml:space="preserve"><style type="text/css">.st0{fill:#311d44}.st1{clip-path:url(#SVGID_2_)}.st2{fill:#49ed00}.st3{fill:none;stroke:#35ba00;stroke-miterlimit:10}.st4{fill:#ff8e06}.st5{fill:#ed6100}.st6{fill:#1e122b}.st7{clip-path:url(#SVGID_4_)}.st8{fill:none;stroke:#ed6100;stroke-width:2;stroke-miterlimit:10}.st9{clip-path:url(#SVGID_6_)}.st10{fill:#fbff43;stroke:#9ae0e2;stroke-width:.92;stroke-miterlimit:10}.st11{fill:#efdd00}.st12{opacity:.35;fill:#9ae0e2;enable-background:new}.st13{fill:#fbff43}.st14,.st15{fill:none;stroke:#1b264c;stroke-width:3;stroke-linecap:round;stroke-miterlimit:10}.st15{stroke-width:2}.st16{fill:#d85092}.st17{fill:#fff}.st18{fill:none;stroke:#9ae0e2;stroke-width:3;stroke-miterlimit:10}</style><path id="l-arm" d="M50.6,245.7c9.3-11.1,23.2-23.9,27.2-34s-5.5-26.4-14.5-22.4c0,0-20.8,12.5-39.8,38.2	c0,0-6.9,13.9,5.9,20.4S50.6,245.7,50.6,245.7z" class="st0"/><g id="l-hand"><g><defs><path id="SVGID_1_" d="M23.7,226.7c-11.8,3.5-17.2,1.3-22.5,8c-5.3,6.7,10.9,9.3,10.9,9.3s-18.7,10.5-9.5,24.8 c9.2,14.3,33.3,0.7,48-23.1c0,0,1.9-9.2-8.1-15.4S23.7,226.7,23.7,226.7z"/></defs><clipPath id="SVGID_2_"><use xlink:href="#SVGID_1_" style="overflow:visible"/></clipPath><g class="st1"><polygon points="-11.2 231.6 -8.5 256.7 11.5 285.3 59.5 247.6 35.2 218.4" class="st2"/><path d="M46.6,260.9c0,0-0.6-11.3-3.9-19c-3.1-7.3-12-16.4-30.3-14.4" class="st3"/><path d="M27.9,278.6c0,0-16.3,0.7-23.5-13.3c-7.2-13.9,15.4-24.1,15.4-24.1s-21.2,1.3-18.8-6.4s11.3-7.3,11.3-7.3" class="st3"/></g></g></g><path id="l-thigh" d="M61.8,295.3c0,0,3.2,28.2,8.6,41.8c8.8,22.2,11.7,25.9,20.3,26.5c8.6,0.7,10.1-19.9,11.2-37.2	c0.4-6,4.6-28.2-4.3-38.1c-12.4-14-38.4-29.5-38-19.2C59.8,275.7,60,287.6,61.8,295.3z" class="st4"/><g id="l-calf"><path d="M77,350.4l11.9,54.8l8.1,1.1c0,0,8.5-28.6,1.9-54C91.6,323.9,77,350.4,77,350.4z" class="st4"/><path d="M103.8,360.4c0.1,1.3,0.2,2.6,0.3,4c0.7,18.1-4.3,38.7-4.3,38.7l-20.7-2.7l-11.4-40.2l-1.4-4.9 c0,0,3.9-16.8,16.3-13.2C91.4,344.5,103.1,353.9,103.8,360.4z" class="st0"/><path d="M99.8,400.5l0.2,8.7c0,1.4-1,2.6-2.3,2.8c-3.2,0.5-7.2,0.2-12.6,1.3c-4.3,0.9-14,3.6-21.9,0.6 c-0.7-0.2-1.9-2.1-2.6-3.4c0-0.3,0.2-0.5,0.4-0.6c0.9-0.7,3.3-1.2,6.7-2.6c4.1-1.7,6.7-4.5,11.6-8.1c6.3-4.7,13.1-3.4,18.6-1.2 C99.1,398.4,99.8,399.3,99.8,400.5z" class="st0"/><path d="M100,406.9l0.1,2.2c0,1.4-1,2.6-2.3,2.8c-3.2,0.5-7.2,0.2-12.6,1.3c-4.3,0.9-14,3.6-21.9,0.6 c-0.7-0.2-1.9-2.1-2.6-3.4c0-0.3,0.2-0.5,0.4-0.6c1.3,1.1,3.6,2.2,7.6,2.5C78.3,413.1,95.8,409,100,406.9z" class="st2"/><path d="M103.8,360.4c0.1,1.3,0.2,2.6,0.3,4c-7.4-9.3-18.6-18-27-16.5c-5.5,1-9.3,12.2-9.3,12.2l-1.4-4.9 c0,0,3.9-16.8,16.3-13.2C91.4,344.5,103.1,353.9,103.8,360.4z" class="st2"/></g><path id="r-thigh" d="M145.4,295.3c0,0-3.2,28.2-8.6,41.8c-8.8,22.2-11.6,25.9-20.3,26.5c-8.6,0.7-10.1-19.9-11.3-37.2	c-0.4-6-4.6-28.2,4.3-38.1c12.4-14,38.4-29.5,38-19.2C147.4,275.7,147.2,287.6,145.4,295.3z" class="st4"/><g id="r-calf"><path d="M107.9,350.4l11.9,54.8l8.1,1.1c0,0,8.5-28.6,1.9-54C122.4,323.9,107.9,350.4,107.9,350.4z" class="st4"/><path d="M141.4,360.4c0.1,1.3,0.2,2.6,0.3,4c0.7,18.1-4.3,38.7-4.3,38.7l-20.7-2.7l-11.4-40.2l-1.4-4.9 c0,0,3.9-16.8,16.3-13.2C129,344.5,140.8,353.9,141.4,360.4z" class="st0"/><path d="M137.5,400.5l0.2,8.7c0,1.4-0.7,2-2.4,2.8c-9.5,5.1-6,6.2-16.7,6.2c-10.4,0.1-13.3-1.6-13.8-5.8 c-0.3-2.7,1.3-1.3,6.2-4.3c4-2.4,3.6-4.1,6-8.9c3.4-7,13-3.4,18.6-1.2C136.7,398.3,137.4,399.3,137.5,400.5z" class="st0"/><path d="M141.4,360.4c0.1,1.3,0.2,2.6,0.3,4c-7.4-9.3-18.6-18-27-16.5c-5.5,1-9.3,12.2-9.3,12.2l-1.4-4.9 c0,0,3.9-16.8,16.3-13.2C129,344.5,140.8,353.9,141.4,360.4z" class="st2"/><path d="M137.8,409.2c0,1.4-0.7,2-2.4,2.8c-9.5,5.1-6,6.2-16.7,6.2c-10.4,0.1-13.3-1.6-13.8-5.8 c-0.1-0.8,0-1.3,0.3-1.6c1,3.3,4.3,4.5,13.5,4.5c10.6-0.1,7.2-1.1,16.7-6.2c1.3-0.7,2.1-1.2,2.3-2.2L137.8,409.2z" class="st2"/></g><g id="torso"><path d="M156.9,198c0,0,5.2,15.9,1.4,27.2s-20.2,43.8-20.2,43.8l-14.1-0.9c0,0,24.8-74,10-80.8c0,0,9.7-0.1,13.9,3 C151.1,192.8,154.1,195.3,156.9,198z" class="st5"/><path d="M150,247.5c0,2-0.1,4-0.2,5.9c-0.2,2.8-0.4,5.6-0.8,8.2c-1.7,13-7.1,25.1-15.7,35c-5.8,6.8-21.9,18-29.7,18 c-8.7,0-19-6.8-25.4-12.2c-7.3-6.1-16.6-17.5-19-26.7c-4.1-15.1-5.7-30.8-4.9-46.4c0.8-12.2,5.1-28.8,13.9-38.4l0.4-0.4 c13.3-13.5,56.8-13.5,70.1,0c6.4,6.6,9.4,20.4,10.6,36.3C149.8,233.5,150,240.5,150,247.5z" class="st0"/><path d="M78.6,184.5c-1.9,1.5-5.7,3.8-7.9,7.3c-6.4,10.4-7.1,25.2-7.6,30.5c-1.3,11.9-0.6,23.9,2.1,35.5 c0.7,2.9,1.5,5.8,2.5,8.6c0.9,2.6,3.2,7.2-0.9,9.1c-7.2,3.3-15-21.5-17.8-38.7c-1-5.7-4.6-26.6,0.3-40c2.2-6.1,7.8-9.9,15.2-12.1 C69.1,183.2,74,183.1,78.6,184.5z" class="st4"/><path d="M150,247.5c0,2-0.1,4-0.2,5.9c-2.8,4.6-6,8.5-9,9.4c-8.1,2.4-13.9-18.1-14-27.9s6.6-22.9,6.6-22.9l15.9,14.8 C149.8,233.5,150,240.5,150,247.5z" class="st6"/><g><defs><path id="SVGID_3_" d="M149.1,261.6c-2.3,16.4-8.3,28.6-14.7,36c-5.8,6.8-20,17-30.7,17s-27.6-10.3-33.5-17 c-6.3-7.4-12.4-19.6-14.7-35.9c4.1,3.5,25.5,9,48.1,9C126.3,270.7,145.2,265.1,149.1,261.6z"/></defs><clipPath id="SVGID_4_"><use xlink:href="#SVGID_3_" style="overflow:visible"/></clipPath><g class="st7"><rect width="95.3" height="54.6" x="55.9" y="260" class="st4"/><path d="M54.6,268.5c0,0,21.8,13,48.6,12.6c25.1-0.4,38.9-4.1,49.4-12.6" class="st8"/><path d="M85.1,279.5c0,15.4,9,33,24.3,39.8" class="st8"/></g></g><path d="M67.2,277.4c0.3,4.7-0.1,10.4-2.6,12.5c-3,2.6-11.7-3.6-12.7-9.9s5.1-13.3,9.2-13 C64.5,267.3,66.9,272.8,67.2,277.4z" class="st2"/></g><path id="r-arm" d="M149.3,251.4c-8-12.1-20.4-26.3-23.1-36.8c-2.8-10.5,8.5-25.6,16.9-20.6c0,0,19.3,14.8,35.2,42.4	c0,0,5.3,14.6-8.2,19.6C156.6,261,149.3,251.4,149.3,251.4z" class="st0"/><g id="r-hand"><g><defs><path id="SVGID_5_" d="M149.3,251.4c-2.6,12.1-7.1,15.8-3.7,23.6c3.4,7.9,13.4-5.2,13.4-5.2s0.3,21.5,17.2,20.2 s16.1-29.3,2.1-53.6c0,0-6.7-5.7-16.9,0.1S149.3,251.4,149.3,251.4z"/></defs><clipPath id="SVGID_6_"><use xlink:href="#SVGID_5_" style="overflow:visible"/></clipPath><g class="st9"><polygon points="136.9 284.4 160.2 294 194.9 290.1 184.7 229.9 147.5 237.2" class="st2"/><path d="M190.3,247.5c0,0-10.2-4.9-18.6-5.7c-7.9-0.7-20.1,2.8-27.1,19.8" class="st3"/><path d="M196.9,272.4c0,0-7.2,14.6-22.9,14.3s-13.8-25-13.8-25s-9,19.3-14.6,13.4s-1-13.4-1-13.4" class="st3"/></g></g></g><g id="suspender"><path d="M156.9,198c-2.1,0.4-4.8-1-7.8,1.2c-9,6.4-15.9,21.5-18.1,26.1c-5.2,10.7-8.6,22.2-10,34.1 c-0.4,3.1-0.6,6.2-0.7,9.2c-0.1,2.9,0.2,7.1-3.8,8c-10.4,2.5-8.5-30.1-5.2-47.6c1.1-5.8,5.1-24.5,13.9-34.6c4-4.6,9.2-9.5,16.3-7.7 C147.2,188.2,155,193,156.9,198z" class="st4"/><path d="M107.8,283.5c-1.1,6.4,1.2,12,5,12.6s11-3.2,12.1-9.6c1.1-6.4-4.5-12.8-8.3-13.4S108.8,277.1,107.8,283.5z" class="st2"/></g><g id="head"><ellipse cx="103.5" cy="188.8" class="st10" rx="25.3" ry="6.8"/><path d="M114.1,188.3c-5.3,5.8-14.4,6.2-20.2,0.8c-0.3-0.3-0.6-0.5-0.8-0.8v-36h21V188.3z" class="st11"/><path d="M183.6,110.1c0,53.6-35.8,85.5-80,85.5s-80-31.9-80-85.5S63.8,1.5,103.6,1.5S183.6,56.5,183.6,110.1z" class="st12"/><path d="M149.1,121.6c0.4,25.2-19.7,45.8-44.9,46.2C79.1,168.2,58.4,148.1,58,123c0-0.4,0-0.9,0-1.4 c0-11.6,6.8-27.4,13.5-41c7.9-15.9,6.5-28.9,32-28.9c25.8,0,24.4,13.2,32.3,29.3C142.4,94.6,149.1,110.1,149.1,121.6z" class="st13"/><path d="M140.4,96.2c-28.9-33-26.9-43.6-26.9-43.6l34.8,4.4c1.1,0.1,2.2,0.6,3,1.4c0.2,0.2,0.4,0.4,0.6,0.7 c0.2,0.3,0.4,0.6,0.5,0.9l0,0c0.2,0.4,0.3,0.7,0.4,1.1C155.5,75.9,140.4,96.2,140.4,96.2z" class="st4"/><path d="M140.4,96.2c0,0,0.8-17.3,4.6-27.1c3.2-8.1,5.2-11.1,6.3-10.7c0.3,0.1,0.5,0.4,0.6,0.7 c0.1,0.3,0.3,0.6,0.5,0.9l0,0c0.2,0.4,0.3,0.7,0.4,1.1C155.5,75.9,140.4,96.2,140.4,96.2z" class="st5"/><line x1="144.9" x2="151.8" y1="79.1" y2="82.6" class="st14"/><path d="M163.3,84.6c-0.1,0.2-0.2,0.5-0.2,0.8c-0.2,0.5-0.4,1-0.5,1.5c-0.1,0.2-0.2,0.4-0.2,0.6 c-1.9,4.4-4.7,8.2-7.6,9.7h-0.1c-1.8,0.9-8-1-8-1l10.3-27c0,0,5.9,2.7,6.6,4.6l0.1,0.2C164.8,76.8,164.5,80.7,163.3,84.6z" class="st4"/><ellipse cx="151.8" cy="82.6" class="st4" rx="14.4" ry="3.8" transform="matrix(0.3566 -0.9343 0.9343 0.3566 20.4846 194.9419)"/><path d="M163.3,84.6c-0.1,0.2-0.2,0.5-0.2,0.8c-0.2,0.5-0.4,1-0.5,1.5c-0.1,0.2-0.2,0.4-0.2,0.6 c-1.9,4.4-4.7,8.2-7.6,9.7c-1.3-1.2-0.7-6.6,1.6-12.6s5.5-10.7,7.3-10.5C164.8,76.8,164.5,80.7,163.3,84.6z" class="st5"/><line x1="166.1" x2="159.2" y1="89.7" y2="86.2" class="st15"/><path d="M170.8,90.4l-0.1,0.3l-0.2,0.6l-0.1,0.2c-0.6,1.5-1.6,2.9-2.9,3.8l0,0c-0.7,0.3-3.1-0.4-3.1-0.4l4-10.5 c0,0,2.3,1.1,2.6,1.8c0,0,0,0.1,0,0.1C171.3,87.6,171.2,89.1,170.8,90.4z" class="st4"/><ellipse cx="166.2" cy="89.6" class="st4" rx="5.6" ry="1.5" transform="matrix(0.3566 -0.9343 0.9343 0.3566 23.2258 212.9766)"/><path d="M170.8,90.4l-0.1,0.3l-0.2,0.6l-0.1,0.2c-0.6,1.5-1.6,2.9-2.9,3.8c-0.5-0.5-0.3-2.6,0.6-4.9s2.1-4.2,2.8-4.1 C171.3,87.6,171.2,89.1,170.8,90.4z" class="st5"/><path d="M39.8,95.2c0.7,0.3,3.1-0.4,3.1-0.4l-4-10.5c0,0-2.3,1.1-2.6,1.8C35.1,88.9,37.4,94.1,39.8,95.2z" class="st4"/><ellipse cx="40.9" cy="89.6" class="st5" rx="1.4" ry="5.6" transform="matrix(0.9343 -0.3566 0.3566 0.9343 -29.2748 20.4586)"/><line x1="49.2" x2="40.9" y1="85.5" y2="89.7" class="st15"/><path d="M52.4,97.1c1.8,0.9,8-1,8-1l-10.3-27c0,0-5.9,2.7-6.6,4.6C40.5,80.8,46.5,94.2,52.4,97.1z" class="st4"/><ellipse cx="55.3" cy="82.6" class="st5" rx="3.8" ry="14.4" transform="matrix(0.9343 -0.3566 0.3566 0.9343 -25.8273 25.1392)"/><line x1="68.9" x2="55.3" y1="75.6" y2="82.6" class="st14"/><path d="M93.7,52.6c0,0-10.9,4.6-28.4,41.4c0,0-13.7-17.9-10.9-32.9c0.4-2.2,2.2-3.9,4.4-4.1L93.7,52.6z" class="st4"/><path d="M81,131.7c0,0-6.9,1.3-5.2,5.5c1,2.5,2.8,4.6,5.2,6c0,0-2.2-5-2.1-6.7C79,135.2,81,131.7,81,131.7z" class="st11"/><path d="M112.8,132.9c0,0,6.9,1.3,5.2,5.5c-1,2.5-2.9,4.6-5.2,6V132.9z" class="st11"/><path d="M107.5,108.6l-23.1,0.9c-2.7,1.8-5.2,3.9-7.5,6.3c-1.6,5.5,9,18.2,18.6,18.2c9.5,0,16.4-10.1,15.8-14.6 C110.8,115.5,109.5,111.9,107.5,108.6z" class="st16"/><path d="M108.1,112.3c0.3,2.1,0.4,4.1,0.3,6.2c-0.2,1.7-7.5,6.8-17.8,5.9s-14.4-7-13.8-8.7c1.1-2,2.3-4,3.6-5.9 C87.4,100,90.9,95.6,92,87.7s5.5-7.3,7.5-7.5s6.2-0.3,5.8,5.8C105,89.9,106.9,101.5,108.1,112.3z" class="st13"/><path d="M115,137.5c-4.7,3.8-12.7,6.7-21.7,6.1s-12.3-3.2-14.4-7.1c0,0,6,13.6,14.4,14.2S115,137.5,115,137.5z" class="st5"/><ellipse cx="117" cy="91.8" class="st0" rx="10.6" ry="16.3" transform="matrix(0.9857 -0.1687 0.1687 0.9857 -13.8029 21.0544)"/><path d="M70.6,87.2c-2.5,8.5,0.5,16.9,5.5,18.8s11.1-3.6,13.6-12.1s0.5-16.9-4.5-18.8S73.2,78.6,70.6,87.2z" class="st0"/><ellipse cx="84.3" cy="86.4" class="st17" rx="5.4" ry="3.2" transform="matrix(4.414246e-02 -0.999 0.999 4.414246e-02 -5.7829 166.8395)"/><ellipse cx="119.5" cy="87.2" class="st17" rx="3.5" ry="5.4" transform="matrix(0.9954 -9.567202e-02 9.567202e-02 0.9954 -7.7937 11.8356)"/><polygon points="72.5 72.3 86.1 68.3 86 63.9 71.7 68.3" class="st16"/><polygon points="126.1 71.6 112.4 68.3 112.2 63.9 126.8 67.5" class="st16"/><path d="M183.6,110.1c0,53.6-35.8,85.5-80,85.5s-80-31.9-80-85.5S63.8,1.5,103.6,1.5S183.6,56.5,183.6,110.1z" class="st18"/><ellipse cx="122.8" cy="25.4" class="st17" rx="6.9" ry="8.7" transform="matrix(0.6899 -0.7239 0.7239 0.6899 19.6884 96.7514)"/><path d="M139.9,33.5c0.9,0.8,1.7,1.4,2.4,2.2s1.5,1.5,2.2,2.2s1.4,1.5,2.1,2.3s1.4,1.5,2,2.3l1.9,2.4 c0.6,0.8,1.2,1.7,1.8,2.5s1.2,1.6,1.7,2.5l1.6,2.6c4.2,6.9,7.6,14.1,10.3,21.7c1.2,3.8,2.6,7.6,3.4,11.5l0.7,2.9 c0.2,1,0.5,1.9,0.6,2.9l1.1,5.9c0.2,1,0.4,1.9,0.5,2.9l0.3,3l0.6,5.9c0.3,3.9,0.4,7.9,0.6,11.8c-0.4-3.9-0.8-7.9-1.3-11.8l-1-5.8 l-0.5-2.9c-0.2-1-0.4-1.9-0.7-2.9l-1.5-5.7c-0.2-1-0.5-1.9-0.8-2.8l-0.9-2.8c-1.1-3.8-2.6-7.3-4-11c-3.1-7.1-6.9-13.9-11.3-20.3 l-1.7-2.3c-0.6-0.8-1.2-1.5-1.8-2.3s-1.2-1.5-1.8-2.2l-1.9-2.1c-0.6-0.7-1.3-1.4-2-2.1s-1.3-1.4-2-2s-1.4-1.3-2.1-1.9 s-1.5-1.2-2.1-1.7l-0.1-0.1c-1.3-1.1-1.5-2.9-0.4-4.2c1-1.2,2.6-1.4,3.9-0.6L139.9,33.5z" class="st17"/><path d="M42.3,130c-0.1,5.1,0.8,10.2,2.8,14.9c2,4.9,4.6,9.6,7.7,13.9c3.1,4.4,6.7,8.5,10.6,12.2c2,1.9,4,3.6,6.2,5.3 c2.2,1.7,4.5,3.1,7,4.2c-2.6-0.9-5.1-2.1-7.4-3.6c-2.3-1.5-4.6-3-6.7-4.8c-4.3-3.4-8.4-7.3-12-11.5c-3.7-4.2-6.9-8.9-9.5-13.9 c-2.7-5.2-4.3-10.9-4.7-16.7l0,0c-0.1-1.7,1.2-3.1,2.9-3.1c1.7-0.1,3.1,1.2,3.1,2.9C42.3,129.8,42.3,129.9,42.3,130z" class="st17"/></g></svg>